<svg width="136" height="134" viewBox="0 0 136 134" fill="none" xmlns="http://www.w3.org/2000/svg">
<path d="M90.5556 131.063L70.5 118.731V94.4998L90.5556 81.9512L110.5 94.496V118.735L90.5556 131.063Z" fill="#292B2F" stroke="#824ACB" stroke-width="5"/>
<path d="M45.5556 131.063L25.5 118.731V94.4998L45.5556 81.9512L65.5 94.496V118.735L45.5556 131.063Z" fill="#292B2F" stroke="#824ACB" stroke-width="5"/>
<path d="M113.057 92.0805L92.5 79.7147V55.516L113.057 42.9332L133.5 55.5121V79.7185L113.057 92.0805Z" fill="#292B2F" stroke="#824ACB" stroke-width="5"/>
<path d="M23.057 92.0805L2.5 79.7147V55.516L23.0569 42.9332L43.5 55.5121V79.7185L23.057 92.0805Z" fill="#292B2F" stroke="#824ACB" stroke-width="5"/>
<path d="M45.0569 53.0663L24.5 40.4757V15.7594L45.0569 2.94793L65.5 15.7555V40.4795L45.0569 53.0663Z" fill="#292B2F" stroke="#824ACB" stroke-width="5"/>
<path d="M91.5583 53.0832L70.5 40.46V15.7751L91.5583 2.93045L112.5 15.7713V40.4638L91.5583 53.0832Z" fill="#292B2F" stroke="#824ACB" stroke-width="5"/>
<path d="M90.5556 131.063L70.5 118.731V94.4998L90.5556 81.9512L110.5 94.496V118.735L90.5556 131.063Z" fill="#292B2F" stroke="#824ACB" stroke-width="5"/>
<path d="M45.5556 131.063L25.5 118.731V94.4998L45.5556 81.9512L65.5 94.496V118.735L45.5556 131.063Z" fill="#292B2F" stroke="#824ACB" stroke-width="5"/>
<path d="M113.057 92.0805L92.5 79.7147V55.516L113.057 42.9332L133.5 55.5121V79.7185L113.057 92.0805Z" fill="#292B2F" stroke="#824ACB" stroke-width="5"/>
<path d="M23.057 92.0805L2.5 79.7147V55.516L23.0569 42.9332L43.5 55.5121V79.7185L23.057 92.0805Z" fill="#292B2F" stroke="#824ACB" stroke-width="5"/>
<path d="M45.0569 53.0663L24.5 40.4757V15.7594L45.0569 2.94793L65.5 15.7555V40.4795L45.0569 53.0663Z" fill="#292B2F" stroke="#824ACB" stroke-width="5"/>
<path d="M91.5583 53.0832L70.5 40.46V15.7751L91.5583 2.93045L112.5 15.7713V40.4638L91.5583 53.0832Z" fill="#292B2F" stroke="#824ACB" stroke-width="5"/>
</svg>
