<svg width="704" height="642" viewBox="0 0 704 642" fill="none" xmlns="http://www.w3.org/2000/svg">
<path d="M440.219 189.626L361 144.336V56.5039L440.219 10.419L519 56.4902V144.35L440.219 189.626Z" fill="#292B2F" stroke="#824ACB" stroke-width="18"/>
<path d="M176.219 631.626L97 586.336V498.504L176.219 452.419L255 498.49V586.35L176.219 631.626Z" fill="#292B2F" stroke="#824ACB" stroke-width="18"/>
<path d="M264.219 483.626L185 438.336V350.504L264.219 304.419L343 350.49V438.35L264.219 483.626Z" fill="#292B2F" stroke="#824ACB" stroke-width="18"/>
<path d="M352.219 336.626L273 291.336V203.504L352.219 157.419L431 203.49V291.35L352.219 336.626Z" fill="#292B2F" stroke="#824ACB" stroke-width="18"/>
<path d="M440.219 483.626L361 438.336V350.504L440.219 304.419L519 350.49V438.35L440.219 483.626Z" fill="#292B2F" stroke="#824ACB" stroke-width="18"/>
<path d="M88.2192 189.626L9 144.336V56.5039L88.2191 10.419L167 56.4902V144.35L88.2192 189.626Z" fill="#292B2F" stroke="#824ACB" stroke-width="18"/>
<path d="M176.219 336.626L97 291.336V203.504L176.219 157.419L255 203.49V291.35L176.219 336.626Z" fill="#292B2F" stroke="#824ACB" stroke-width="18"/>
<path d="M616.219 483.626L537 438.336V350.504L616.219 304.419L695 350.49V438.35L616.219 483.626Z" fill="#292B2F" stroke="#824ACB" stroke-width="18"/>
</svg>
